# xmcd
#
# Track frame offsets: 
#        150
#        19801
#        36030
#        55229
#        71375
#        85128
#        99763
#        115964
#        137645
#        151150
#
# Disc length: 2242 seconds
#
# Revision: 0
# Processed by: cddbd v1.5.2PL0 Copyright (c) Steve Scherf et al.
# Submitted via: ExactAudioCopyFreeDBPlugin 1.0
#
DISCID=7308c00a
DTITLE=Zumba Fitness - Zumba Mega Mix 30
DYEAR=2012
DGENRE=Dance
TTITLE0=Incredible Bongo Band - Apache (Warrier One Remix)
TTITLE1=Chayanne - Torero
TTITLE2=Oscar D'Leon - Que Cosa Tan Linda
TTITLE3=Fever Reggaeton
TTITLE4=K-Liber4life - Buraku
TTITLE5=Isabela - Mis Ojos Lloran por Ti
TTITLE6=El Baile de las Cocoteras
TTITLE7=The Ting Tings - That's Not My Name
TTITLE8=Oro Solido - Verano Solido
TTITLE9=Feel Alright
EXTD=
EXTT0=
EXTT1=
EXTT2=
EXTT3=
EXTT4=
EXTT5=
EXTT6=
EXTT7=
EXTT8=
EXTT9=
PLAYORDER=
